<?xml version="1.0" encoding="UTF-8"?>
<svg id="Layer_2" data-name="Layer 2" xmlns="http://www.w3.org/2000/svg" viewBox="0 0 500 498.35">
  <defs>
    <style>
      .cls-1 {
        fill: #fff;
      }
    </style>
  </defs>
  <g id="Layer_1-2" data-name="Layer 1">
    <g>
      <g>
        <rect x="456.52" y="325" width="21.74" height="21.67"/>
        <path d="M456.52,21.66h-130.44v151.68h152.18V21.66h-21.74ZM456.52,64.99v86.67h-108.7V43.33h108.7v21.67Z"/>
        <rect x="434.78" y="455.01" width="21.74" height="21.67"/>
        <polygon points="413.04 346.67 413.04 325 391.3 325 391.3 346.67 391.3 368.34 413.04 368.34 413.04 390.01 434.78 390.01 456.52 390.01 478.26 390.01 478.26 368.34 456.52 368.34 456.52 346.67 434.78 346.67 413.04 346.67"/>
        <rect x="391.3" y="455.01" width="21.74" height="21.67"/>
        <polygon points="391.3 260.01 391.3 281.67 391.3 303.33 413.04 303.33 413.04 325 434.78 325 434.78 303.33 434.78 281.67 434.78 260.01 413.04 260.01 413.04 238.34 434.78 238.34 434.78 260.01 456.52 260.01 456.52 238.34 456.52 216.67 434.78 216.67 434.78 195 413.04 195 391.3 195 369.56 195 347.82 195 326.08 195 326.08 216.67 347.82 216.67 369.56 216.67 369.56 238.34 391.3 238.34 391.3 260.01"/>
        <polygon points="391.3 64.99 369.56 64.99 369.56 86.66 369.56 108.33 369.56 130 391.3 130 413.04 130 434.78 130 434.78 108.33 434.78 86.66 434.78 64.99 413.04 64.99 391.3 64.99"/>
        <polygon points="369.56 390.01 369.56 411.67 391.3 411.67 391.3 433.34 413.04 433.34 413.04 455.01 434.78 455.01 434.78 433.34 434.78 411.67 413.04 411.67 413.04 390.01 391.3 390.01 369.56 390.01"/>
        <rect x="369.56" y="303.33" width="21.74" height="21.67"/>
        <polygon points="347.82 433.34 347.82 455.01 326.08 455.01 304.34 455.01 304.34 433.34 304.34 411.67 282.6 411.67 282.6 433.34 282.6 455.01 282.6 476.68 304.34 476.68 326.08 476.68 347.82 476.68 369.56 476.68 369.56 455.01 369.56 433.34 369.56 411.67 347.82 411.67 347.82 433.34"/>
        <polygon points="369.56 260.01 369.56 238.34 347.82 238.34 347.82 260.01 347.82 281.67 326.08 281.67 304.34 281.67 304.34 303.33 326.08 303.33 347.82 303.33 369.56 303.33 369.56 281.67 369.56 260.01"/>
        <polygon points="326.08 390.01 347.82 390.01 369.56 390.01 369.56 368.34 369.56 346.67 369.56 325 347.82 325 347.82 346.67 347.82 368.34 326.08 368.34 304.34 368.34 304.34 346.67 304.34 325 282.6 325 282.6 346.67 282.6 368.34 282.6 390.01 304.34 390.01 326.08 390.01"/>
        <polygon points="282.6 260.01 304.34 260.01 326.08 260.01 326.08 238.34 304.34 238.34 304.34 216.67 282.6 216.67 282.6 238.34 282.6 260.01"/>
        <rect x="282.6" y="151.67" width="21.74" height="21.67"/>
        <rect x="282.6" y="21.66" width="21.74" height="21.67"/>
        <rect x="260.86" y="390.01" width="21.74" height="21.67"/>
        <rect x="260.86" y="281.67" width="21.74" height="21.67"/>
        <rect x="260.86" y="195" width="21.74" height="21.67"/>
        <rect x="260.86" y="130" width="21.74" height="21.67"/>
        <polygon points="282.6 108.33 282.6 130 304.34 130 304.34 108.33 304.34 86.66 282.6 86.66 282.6 64.99 282.6 43.33 260.86 43.33 260.86 21.66 239.13 21.66 239.13 43.33 239.13 64.99 239.13 86.66 239.13 108.33 260.86 108.33 282.6 108.33"/>
        <polygon points="239.13 455.01 217.39 455.01 195.65 455.01 195.65 476.68 217.39 476.68 239.13 476.68 260.86 476.68 260.86 455.01 260.86 433.34 239.13 433.34 239.13 455.01"/>
        <rect x="239.13" y="346.67" width="21.73" height="21.67"/>
        <rect x="239.13" y="303.33" width="21.73" height="21.67"/>
        <rect x="239.13" y="151.67" width="21.73" height="21.67"/>
        <rect x="217.39" y="325" width="21.74" height="21.67"/>
        <polygon points="239.13 260.01 260.86 260.01 260.86 238.34 260.86 216.67 239.13 216.67 217.39 216.67 195.65 216.67 195.65 238.34 217.39 238.34 217.39 260.01 217.39 281.67 239.13 281.67 239.13 260.01"/>
        <polygon points="239.13 195 239.13 173.33 217.39 173.33 217.39 151.67 239.13 151.67 239.13 130 239.13 108.33 217.39 108.33 217.39 86.66 217.39 64.99 195.65 64.99 195.65 86.66 195.65 108.33 195.65 130 195.65 151.67 195.65 173.33 195.65 195 217.39 195 239.13 195"/>
        <polygon points="217.39 346.67 195.65 346.67 195.65 368.34 195.65 390.01 195.65 411.67 195.65 433.34 217.39 433.34 217.39 411.67 217.39 390.01 239.13 390.01 239.13 368.34 217.39 368.34 217.39 346.67"/>
        <polygon points="195.65 325 217.39 325 217.39 303.33 217.39 281.67 195.65 281.67 195.65 303.33 195.65 325"/>
        <rect x="173.91" y="260.01" width="21.74" height="21.66"/>
        <rect x="152.17" y="281.67" width="21.74" height="21.67"/>
        <polygon points="173.91 260.01 173.91 238.34 152.17 238.34 130.43 238.34 130.43 260.01 130.43 281.67 152.17 281.67 152.17 260.01 173.91 260.01"/>
        <path d="M130.43,325H21.73v151.68h152.18v-151.68h-43.48ZM152.17,368.34v86.67H43.47v-108.34h108.7v21.67Z"/>
        <polygon points="152.17 216.67 173.91 216.67 173.91 195 152.17 195 130.43 195 108.69 195 86.95 195 65.21 195 65.21 216.67 43.47 216.67 43.47 238.34 21.73 238.34 21.73 260.01 21.73 281.67 43.47 281.67 43.47 303.33 65.21 303.33 65.21 281.67 86.95 281.67 86.95 260.01 65.21 260.01 65.21 238.34 86.95 238.34 86.95 216.67 108.69 216.67 108.69 238.34 130.43 238.34 130.43 216.67 152.17 216.67"/>
        <rect x="108.69" y="281.67" width="21.74" height="21.67"/>
        <polygon points="86.95 368.34 65.21 368.34 65.21 390.01 65.21 411.67 65.21 433.34 86.95 433.34 108.69 433.34 130.43 433.34 130.43 411.67 130.43 390.01 130.43 368.34 108.69 368.34 86.95 368.34"/>
        <rect x="86.95" y="238.34" width="21.74" height="21.67"/>
        <polygon points="108.69 130 130.43 130 130.43 108.33 130.43 86.66 130.43 64.99 108.69 64.99 86.95 64.99 65.21 64.99 65.21 86.66 65.21 108.33 65.21 130 86.95 130 108.69 130"/>
        <path d="M65.21,173.33h108.7V21.66H21.73v151.68h43.48ZM43.47,130V43.33h108.7v108.34H43.47v-21.67Z"/>
        <rect x="21.73" y="195" width="21.74" height="21.67"/>
      </g>
      <g>
        <path class="cls-1" d="M489.01,0H10.98C4.92,0,0,4.89,0,10.94v476.45c0,6.04,4.92,10.95,10.98,10.95h478.03c6.06,0,10.99-4.91,10.99-10.95V10.94c0-6.05-4.93-10.94-10.99-10.94ZM260.86,21.66v21.67h21.74v-21.67h21.74v21.67h-21.74v43.34h21.74v43.34h-21.74v21.67h21.74v21.67h-21.74v-21.67h-21.74v21.67h-21.73v21.67h-43.48V64.99h21.74v43.34h21.74V21.66h21.73ZM21.73,151.67V21.66h152.18v151.68H21.73v-21.67ZM21.73,260.01v-21.67h21.74v-21.67h-21.74v-21.67h21.74v21.67h21.74v-21.67h108.7v21.67h-43.48v21.67h43.48v21.67h21.74v21.66h21.74v-43.33h-21.74v-21.67h65.21v-21.67h21.74v21.67h21.74v21.67h21.74v21.67h-43.48v-43.34h-21.74v43.34h-21.73v21.66h-21.74v43.34h21.74v-21.67h21.73v-21.67h21.74v21.67h-21.74v21.67h-21.73v21.67h21.73v21.67h-21.73v21.67h-21.74v43.34h-21.74v-86.67h21.74v-21.67h-21.74v-43.34h-21.74v21.67h-21.74v-21.67h-21.74v21.67h-21.74v-21.67h21.74v-43.33h-21.74v21.67h-21.74v21.66h-21.74v21.67h-21.74v-21.67h-21.74v-21.66ZM152.17,476.68H21.73v-151.68h152.18v151.68h-21.74ZM239.13,476.68h-43.48v-21.67h43.48v-21.67h21.73v43.34h-21.73ZM478.26,346.67h-21.74v21.67h21.74v21.67h-65.22v21.67h21.74v43.34h21.74v21.67h-21.74v-21.67h-21.74v21.67h-21.74v-21.67h21.74v-21.67h-21.74v-21.67h-21.74v65h-86.96v-65h-21.74v-21.67h21.74v-65h21.74v43.34h43.48v-43.34h21.74v-21.67h-65.22v-21.67h43.48v-43.33h21.74v-21.67h-43.48v-21.67h108.7v21.67h21.74v43.34h-21.74v64.99h-21.74v21.67h43.48v-21.67h21.74v21.67ZM478.26,43.33v130.01h-152.18V21.66h152.18v21.67Z"/>
        <rect class="cls-1" x="413.04" y="238.34" width="21.74" height="21.67"/>
        <path class="cls-1" d="M413.04,43.33h-65.22v108.34h108.7V43.33h-43.48ZM434.78,86.66v43.34h-65.22v-65h65.22v21.67Z"/>
        <polygon class="cls-1" points="391.3 368.34 391.3 346.67 391.3 325 369.56 325 369.56 346.67 369.56 368.34 369.56 390.01 391.3 390.01 413.04 390.01 413.04 368.34 391.3 368.34"/>
        <rect class="cls-1" x="391.3" y="303.33" width="21.74" height="21.67"/>
        <polygon class="cls-1" points="391.3 281.67 391.3 260.01 391.3 238.34 369.56 238.34 369.56 260.01 369.56 281.67 369.56 303.33 391.3 303.33 391.3 281.67"/>
        <polygon class="cls-1" points="347.82 390.01 326.08 390.01 304.34 390.01 282.6 390.01 282.6 411.67 304.34 411.67 304.34 433.34 304.34 455.01 326.08 455.01 347.82 455.01 347.82 433.34 347.82 411.67 369.56 411.67 369.56 390.01 347.82 390.01"/>
        <polygon class="cls-1" points="260.86 108.33 239.13 108.33 239.13 130 239.13 151.67 260.86 151.67 260.86 130 282.6 130 282.6 108.33 260.86 108.33"/>
        <rect class="cls-1" x="217.39" y="346.67" width="21.74" height="21.67"/>
        <rect class="cls-1" x="217.39" y="151.67" width="21.74" height="21.67"/>
        <rect class="cls-1" x="152.17" y="260.01" width="21.74" height="21.66"/>
        <path class="cls-1" d="M108.69,346.67H43.47v108.34h108.7v-108.34h-43.48ZM130.43,390.01v43.34h-65.22v-65h65.22v21.67Z"/>
        <rect class="cls-1" x="86.95" y="216.67" width="21.74" height="21.67"/>
        <rect class="cls-1" x="65.21" y="238.34" width="21.74" height="21.67"/>
        <path class="cls-1" d="M86.95,151.67h65.22V43.33H43.47v108.34h43.48ZM65.21,108.33v-43.34h65.22v65h-65.22v-21.67Z"/>
      </g>
    </g>
  </g>
</svg>