<?xml version="1.0" encoding="UTF-8"?>
<svg id="Layer_2" data-name="Layer 2" xmlns="http://www.w3.org/2000/svg" viewBox="0 0 500 500">
  <defs>
    <style>
      .cls-1 {
        fill: #fff;
      }
    </style>
  </defs>
  <g id="Layer_1-2" data-name="Layer 1">
    <g>
      <rect x="456.52" y="434.78" width="21.74" height="21.74"/>
      <path d="M456.52,21.74h-130.43v152.17h152.17V21.74h-21.74ZM456.52,65.22v86.96h-108.7V43.48h108.7v21.74Z"/>
      <polygon points="434.78 195.65 434.78 217.39 413.04 217.39 413.04 195.65 391.3 195.65 391.3 217.39 369.57 217.39 369.57 239.13 391.3 239.13 413.04 239.13 413.04 260.87 434.78 260.87 434.78 282.61 456.52 282.61 456.52 260.87 478.26 260.87 478.26 239.13 456.52 239.13 456.52 217.39 478.26 217.39 478.26 195.65 456.52 195.65 434.78 195.65"/>
      <path d="M413.04,260.87h-43.48v21.74h21.74v21.74h-21.74v-21.74h-43.48v-21.74h-43.48v21.74h21.74v21.74h21.74v21.74h43.48v21.74h21.74v108.7h-21.74v21.74h65.22v-21.74h-21.74v-21.74h21.74v-21.74h21.74v-65.22h21.74v-43.48h-21.74v21.74h-43.48v-21.74h21.74v-21.74h-21.74v-21.74ZM434.78,391.3h-21.74v-21.74h21.74v21.74Z"/>
      <polygon points="391.3 65.22 369.57 65.22 369.57 86.96 369.57 108.7 369.57 130.43 391.3 130.43 413.04 130.43 434.78 130.43 434.78 108.7 434.78 86.96 434.78 65.22 413.04 65.22 391.3 65.22"/>
      <polygon points="369.57 413.04 369.57 391.3 347.83 391.3 347.83 413.04 347.83 434.78 369.57 434.78 369.57 413.04"/>
      <polygon points="326.09 456.52 326.09 478.26 347.83 478.26 347.83 456.52 347.83 434.78 326.09 434.78 326.09 456.52"/>
      <rect x="326.09" y="239.13" width="21.74" height="21.74"/>
      <rect x="326.09" y="195.65" width="21.74" height="21.74"/>
      <rect x="304.35" y="326.09" width="21.74" height="21.74"/>
      <polygon points="282.61 304.35 282.61 282.61 260.87 282.61 260.87 260.87 282.61 260.87 282.61 239.13 260.87 239.13 239.13 239.13 239.13 217.39 239.13 195.65 217.39 195.65 217.39 217.39 217.39 239.13 195.65 239.13 173.91 239.13 152.17 239.13 130.43 239.13 108.7 239.13 108.7 260.87 86.96 260.87 65.22 260.87 65.22 282.61 43.48 282.61 43.48 304.35 65.22 304.35 86.96 304.35 86.96 282.61 108.7 282.61 108.7 304.35 130.43 304.35 130.43 282.61 130.43 260.87 152.17 260.87 173.91 260.87 173.91 282.61 152.17 282.61 152.17 304.35 173.91 304.35 195.65 304.35 195.65 326.09 195.65 347.83 195.65 369.57 217.39 369.57 239.13 369.57 239.13 391.3 217.39 391.3 195.65 391.3 195.65 413.04 195.65 434.78 217.39 434.78 217.39 413.04 239.13 413.04 239.13 434.78 239.13 456.52 260.87 456.52 282.61 456.52 282.61 434.78 260.87 434.78 260.87 413.04 282.61 413.04 282.61 434.78 304.35 434.78 304.35 413.04 326.09 413.04 326.09 391.3 326.09 369.57 304.35 369.57 304.35 391.3 282.61 391.3 282.61 369.57 260.87 369.57 260.87 347.83 260.87 326.09 239.13 326.09 217.39 326.09 217.39 304.35 217.39 282.61 195.65 282.61 195.65 260.87 217.39 260.87 239.13 260.87 239.13 282.61 239.13 304.35 260.87 304.35 260.87 326.09 282.61 326.09 304.35 326.09 304.35 304.35 282.61 304.35"/>
      <polygon points="304.35 43.48 304.35 21.74 282.61 21.74 282.61 43.48 282.61 65.22 304.35 65.22 304.35 43.48"/>
      <polygon points="239.13 173.91 260.87 173.91 260.87 152.17 282.61 152.17 282.61 173.91 260.87 173.91 260.87 195.65 260.87 217.39 282.61 217.39 282.61 239.13 304.35 239.13 304.35 217.39 304.35 195.65 304.35 173.91 304.35 152.17 304.35 130.43 282.61 130.43 282.61 108.7 260.87 108.7 260.87 86.96 282.61 86.96 282.61 65.22 260.87 65.22 239.13 65.22 239.13 86.96 217.39 86.96 195.65 86.96 195.65 108.7 217.39 108.7 239.13 108.7 239.13 130.43 217.39 130.43 217.39 152.17 239.13 152.17 239.13 173.91"/>
      <rect x="239.13" y="21.74" width="21.74" height="21.74"/>
      <polygon points="217.39 43.48 217.39 21.74 195.65 21.74 195.65 43.48 195.65 65.22 217.39 65.22 239.13 65.22 239.13 43.48 217.39 43.48"/>
      <rect x="195.65" y="456.52" width="21.74" height="21.74"/>
      <polygon points="217.39 152.17 195.65 152.17 195.65 173.91 195.65 195.65 217.39 195.65 217.39 173.91 217.39 152.17"/>
      <polygon points="152.17 195.65 130.43 195.65 130.43 217.39 152.17 217.39 173.91 217.39 195.65 217.39 195.65 195.65 173.91 195.65 152.17 195.65"/>
      <path d="M130.43,326.09H21.74v152.17h152.17v-152.17h-43.48ZM152.17,369.57v86.96H43.48v-108.7h108.7v21.74Z"/>
      <polygon points="86.96 369.57 65.22 369.57 65.22 391.3 65.22 413.04 65.22 434.78 86.96 434.78 108.7 434.78 130.43 434.78 130.43 413.04 130.43 391.3 130.43 369.57 108.7 369.57 86.96 369.57"/>
      <polygon points="108.7 217.39 108.7 195.65 86.96 195.65 65.22 195.65 65.22 217.39 86.96 217.39 108.7 217.39"/>
      <polygon points="108.7 130.43 130.43 130.43 130.43 108.7 130.43 86.96 130.43 65.22 108.7 65.22 86.96 65.22 65.22 65.22 65.22 86.96 65.22 108.7 65.22 130.43 86.96 130.43 108.7 130.43"/>
      <path d="M65.22,173.91h108.7V21.74H21.74v152.17h43.48ZM43.48,130.43V43.48h108.7v108.7H43.48v-21.74Z"/>
      <polygon points="43.48 239.13 65.22 239.13 65.22 217.39 43.48 217.39 43.48 195.65 21.74 195.65 21.74 217.39 21.74 239.13 21.74 260.87 21.74 282.61 43.48 282.61 43.48 260.87 43.48 239.13"/>
    </g>
    <g>
      <path class="cls-1" d="M489.02,0H10.98C4.92,0,0,4.91,0,10.98v478.03c0,6.06,4.92,10.98,10.98,10.98h478.03c6.06,0,10.98-4.92,10.98-10.98V10.98c0-6.07-4.92-10.98-10.98-10.98ZM21.74,152.17V21.74h152.17v152.17H21.74v-21.74ZM152.17,478.26H21.74v-152.17h152.17v152.17h-21.74ZM195.65,478.26v-21.74h21.74v21.74h-21.74ZM326.09,478.26v-43.48h21.74v-43.48h21.74v43.48h-21.74v43.48h-21.74ZM478.26,456.52h-21.74v-21.74h21.74v21.74ZM478.26,217.39h-21.74v21.74h21.74v21.74h-21.74v21.74h-21.74v21.74h-21.74v21.74h43.48v-21.74h21.74v43.48h-21.74v65.22h-21.74v21.74h-21.74v21.74h21.74v21.74h-65.22v-21.74h21.74v-108.7h-21.74v-21.74h-43.48v21.74h-21.74v-21.74h-43.48v43.48h21.74v21.74h21.74v-21.74h21.74v43.48h-21.74v21.74h-21.74v21.74h-43.48v-43.48h-21.74v21.74h-21.74v-43.48h43.48v-21.74h-43.48v-65.22h-43.48v-21.74h21.74v-21.74h-43.48v43.48h-21.74v-21.74h-21.74v21.74h-43.48v-21.74h-21.74v-86.96h21.74v21.74h21.74v-21.74h43.48v21.74h-43.48v21.74h-21.74v43.48h21.74v-21.74h43.48v-21.74h108.7v-43.48h-21.74v21.74h-65.22v-21.74h65.22v-43.48h21.74v-21.74h21.74v-21.74h-43.48v-21.74h43.48v-21.74h-43.48V21.74h21.74v21.74h21.74v-21.74h21.74v21.74h-21.74v21.74h43.48V21.74h21.74v43.48h-21.74v21.74h-21.74v21.74h21.74v21.74h21.74v108.7h-21.74v21.74h43.48v-21.74h21.74v21.74h-21.74v21.74h43.48v-21.74h43.48v-21.74h-43.48v-21.74h21.74v-21.74h21.74v21.74h21.74v-21.74h43.48v21.74ZM347.83,217.39h-21.74v-21.74h21.74v21.74ZM478.26,43.48v130.43h-152.17V21.74h152.17v21.74Z"/>
      <rect class="cls-1" x="413.04" y="369.57" width="21.74" height="21.74"/>
      <rect class="cls-1" x="413.04" y="260.87" width="21.74" height="21.74"/>
      <path class="cls-1" d="M413.04,43.48h-65.22v108.7h108.7V43.48h-43.48ZM434.78,86.96v43.48h-65.22v-65.22h65.22v21.74Z"/>
      <rect class="cls-1" x="369.57" y="282.61" width="21.74" height="21.74"/>
      <rect class="cls-1" x="304.35" y="304.35" width="21.74" height="21.74"/>
      <rect class="cls-1" x="282.61" y="282.61" width="21.74" height="21.74"/>
      <rect class="cls-1" x="260.87" y="413.04" width="21.74" height="21.74"/>
      <rect class="cls-1" x="260.87" y="260.87" width="21.74" height="21.74"/>
      <rect class="cls-1" x="260.87" y="152.17" width="21.74" height="21.74"/>
      <polygon class="cls-1" points="239.13 304.35 239.13 282.61 239.13 260.87 217.39 260.87 195.65 260.87 195.65 282.61 217.39 282.61 217.39 304.35 217.39 326.09 239.13 326.09 260.87 326.09 260.87 304.35 239.13 304.35"/>
      <polygon class="cls-1" points="239.13 217.39 239.13 239.13 260.87 239.13 282.61 239.13 282.61 217.39 260.87 217.39 260.87 195.65 260.87 173.91 239.13 173.91 239.13 152.17 217.39 152.17 217.39 173.91 217.39 195.65 239.13 195.65 239.13 217.39"/>
      <path class="cls-1" d="M108.7,347.83H43.48v108.7h108.7v-108.7h-43.48ZM130.43,391.3v43.48h-65.22v-65.22h65.22v21.74Z"/>
      <path class="cls-1" d="M86.96,152.17h65.22V43.48H43.48v108.7h43.48ZM65.22,108.7v-43.48h65.22v65.22h-65.22v-21.74Z"/>
    </g>
  </g>
</svg>